Coordinates
version=1
nRows=13
nColumns=18
inDegrees=yes

Units are S.I. units (second, meters, Newtons, ...)
If the header above contains a line with 'inDegrees', this indicates whether rotational values are in degrees (yes) or radians (no).

endheader
time	ground_thorax_rot_x	ground_thorax_rot_y	ground_thorax_rot_z	ground_thorax_tx	ground_thorax_ty	ground_thorax_tz	clav_prot	clav_elev	scapula_abduction	scapula_elevation	scapula_upward_rot	scapula_winging	plane_elv	shoulder_elv	axial_rot	elbow_flexion	pro_sup
      1.11000000	      0.75581440	     -6.07199784	    -11.79125330	      0.00000000	      0.00000000	      0.00000000	    -19.47043779	      8.84965282	     -6.15248749	      3.85916559	     21.63706327	      0.96793228	    -19.85551826	      6.94293726	     50.71393117	      0.00000000	     34.32000000
      1.12000000	      0.82512098	     -6.27152865	    -11.78403036	      0.00000000	      0.00000000	      0.00000000	    -19.64585053	      9.68120135	     -6.18879343	      4.23431839	     22.59376946	      0.71846587	    -18.94760358	      6.46189742	     49.22944599	      0.00000000	     34.32000000
      1.13000000	      0.43240057	     -6.25039824	    -11.77653793	      0.00000000	      0.00000000	      0.00000000	    -19.94139374	      9.89658004	     -6.37039617	      4.22080422	     23.23783196	      0.53820391	    -18.79738125	      5.71257731	     49.19783889	      0.00000000	     34.32000000
      1.14000000	      0.67762209	     -6.25467333	    -11.78054254	      0.00000000	      0.00000000	      0.00000000	    -20.31741997	     10.67219056	     -6.57647453	      4.49155115	     24.42294134	      0.22641312	    -17.81298329	      5.24275107	     48.05197943	      0.00000000	     34.32000000
      1.15000000	      0.26386877	     -6.14075635	    -11.67221877	      0.00000000	      0.00000000	      0.00000000	    -20.39621616	     10.74087192	     -6.53444639	      4.46732118	     24.71952058	      0.13638574	    -17.79343317	      5.08958605	     48.04729858	      0.00000000	     34.32000000
      1.16000000	      0.58492133	     -6.05079906	    -11.80285758	      0.00000000	      0.00000000	      0.00000000	    -20.86970274	     11.61938178	     -6.80390268	      4.76423315	     26.11723957	     -0.23024139	    -17.56876735	      4.46106532	     47.21772677	      0.00000000	     34.32000000
      1.17000000	      0.56342105	     -6.05501427	    -11.75352700	      0.00000000	      0.00000000	      0.00000000	    -21.11794543	     12.47045977	     -7.01361326	      5.17008545	     27.03020364	     -0.43577419	    -16.58488981	      3.67258526	     48.52260672	      0.00000000	     34.32000000
      1.18000000	      0.02375878	     -6.14614124	    -11.69019054	      0.00000000	      0.00000000	      0.00000000	    -21.25229467	     12.73717180	     -7.10797015	      5.27179466	     27.41475347	     -0.53081985	    -16.50384580	      3.09743745	     48.51893938	      0.00000000	     34.32000000
      1.19000000	     -0.10729596	     -6.22895231	    -11.75559565	      0.00000000	      0.00000000	      0.00000000	    -21.56377356	     13.22338100	     -7.28738836	      5.42185294	     28.26011707	     -0.75162699	    -16.29292491	      2.41628212	     48.58435782	      0.00000000	     34.32000000
      1.20000000	      0.43163617	     -6.28565042	    -11.75817664	      0.00000000	      0.00000000	      0.00000000	    -22.01937868	     14.22599486	     -7.74460704	      5.86806682	     29.46032021	     -1.01921537	    -13.19436337	      1.90598651	     48.75615991	      0.00000000	     34.32000000
      1.21000000	      0.07807634	     -6.23564848	    -11.72305995	      0.00000000	      0.00000000	      0.00000000	    -22.04529959	     14.41439566	     -7.72895544	      5.95865863	     29.67372364	     -1.06289283	    -13.12038670	      1.51571007	     48.75185136	      0.00000000	     34.32000000
      1.22000000	      0.42544106	     -6.28158350	    -11.78224398	      0.00000000	      0.00000000	      0.00000000	    -22.34597033	     15.27260020	     -8.14976973	      6.39882257	     30.47225520	     -1.20246186	     -6.19122288	      1.46689416	     42.78211156	      0.00000000	     34.32000000
      1.23000000	      0.37005326	     -6.49885307	    -11.83778823	      0.00000000	      0.00000000	      0.00000000	    -22.42365316	     15.78215016	     -8.09659263	      6.63724136	     31.08568303	     -1.32099798	     -5.23293212	      0.90029766	     41.56454663	      0.00000000	     34.32000000
